# 3ds Max Wavefront OBJ Exporter v0.97b - (c)2007 guruware
# çÏê¨ÇµÇΩÉtÉ@ÉCÉã : 18.10.2019 14:27:54

mtllib box_lrfb.mtl

#
# object Box001
#

v  -498.8399 0.0000 519.9536
v  -498.8399 1000.0000 519.9536
v  501.1601 1000.0000 519.9536
v  501.1601 0.0000 519.9536
v  501.1601 1000.0000 -480.0464
v  501.1601 0.0000 -480.0464
v  -498.8399 1000.0000 -480.0464
v  -498.8399 0.0000 -480.0464
# 8 vertices

vn 0.0000 0.0000 -1.0000
vn -1.0000 0.0000 -0.0000
vn 0.0000 0.0000 1.0000
vn 1.0000 0.0000 -0.0000
# 4 vertex normals

vt 0.0000 0.0000 0.0000
vt 0.0000 1.0000 0.0000
vt 1.0000 1.0000 0.0000
vt 1.0000 0.0000 0.0000
# 4 texture coords

o Box001
g Box001
usemtl wire_088199225
s 8
f 1/1/1 2/2/1 3/3/1 
f 3/3/1 4/4/1 1/1/1 
s 16
f 4/1/2 3/2/2 5/3/2 
f 5/3/2 6/4/2 4/1/2 
s 32
f 6/1/3 5/2/3 7/3/3 
f 7/3/3 8/4/3 6/1/3 
s 64
f 8/1/4 7/2/4 2/3/4 
f 2/3/4 1/4/4 8/1/4 
# 8 faces

