# 3ds Max Wavefront OBJ Exporter v0.97b - (c)2007 guruware
# çÏê¨ÇµÇΩÉtÉ@ÉCÉã : 18.10.2019 14:39:48

mtllib box_2_r.mtl

#
# object Box001
#

v  507.9235 0.0000 983.8798
v  507.9235 0.0000 -1016.1202
v  507.9235 1000.0000 -1016.1202
v  507.9235 1000.0000 983.8798
# 4 vertices

vn 1.0000 0.0000 -0.0000
# 1 vertex normals

vt 0.0000 0.0000 0.0000
vt 1.0000 0.0000 0.0000
vt 1.0000 1.0000 0.0000
vt 0.0000 1.0000 0.0000
# 4 texture coords

o Box001
g Box001
usemtl wire_225087143
s 16
f 1/1/1 2/2/1 3/3/1 
f 3/3/1 4/4/1 1/1/1 
# 2 faces

